<svg xmlns="http://www.w3.org/2000/svg" xmlns:xl="http://www.w3.org/1999/xlink" width="659.294" height="272.836" version="1.1" viewBox="110.5 121 659.294 272.836"><defs><marker id="FilledArrow_Marker" stroke-linejoin="miter" stroke-miterlimit="10" color="#7f8080" markerHeight="8" markerUnits="strokeWidth" markerWidth="10" orient="auto" overflow="visible" viewBox="-1 -4 10 8"><g><path fill="currentColor" stroke="currentColor" stroke-width="1" d="M 8 0 L 0 -3 L 0 3 Z"/></g></marker></defs><g id="Canvas_1" fill="none" fill-opacity="1" stroke="none" stroke-dasharray="none" stroke-opacity="1"><title>Canvas 1</title><rect width="659.294" height="272.836" x="110.5" y="121" fill="#fff"/><g id="Canvas_1_Layer_1"><title>Layer 1</title><g id="Graphic_63"><rect width="105.5" height="38.5" x="387.397" y="157.336" fill="#fff"/><rect width="105.5" height="38.5" x="387.397" y="157.336" stroke="#000" stroke-linecap="round" stroke-linejoin="round" stroke-width="1"/><text fill="#000" transform="translate(392.3972 165.91797)"><tspan x="4.543" y="16" fill="#000" font-family="Monaco" font-size="16">000000001</tspan></text></g><g id="Graphic_62"><rect width="105.5" height="38.5" x="387.397" y="195.836" fill="#c0ffff"/><rect width="105.5" height="38.5" x="387.397" y="195.836" stroke="#000" stroke-linecap="round" stroke-linejoin="round" stroke-width="1"/><text fill="#000" transform="translate(392.3972 204.41797)"><tspan x="4.543" y="16" fill="#000" font-family="Monaco" font-size="16">000000002</tspan></text></g><g id="Graphic_61"><rect width="105.5" height="38.5" x="387.397" y="234.336" fill="#fff"/><rect width="105.5" height="38.5" x="387.397" y="234.336" stroke="#000" stroke-linecap="round" stroke-linejoin="round" stroke-width="1"/><text fill="#000" transform="translate(392.3972 242.91797)"><tspan x="4.543" y="16" fill="#000" font-family="Monaco" font-size="16">000000004</tspan></text></g><g id="Graphic_60"><rect width="105.5" height="38.5" x="387.397" y="272.836" fill="#fff"/><rect width="105.5" height="38.5" x="387.397" y="272.836" stroke="#000" stroke-linecap="round" stroke-linejoin="round" stroke-width="1"/><text fill="#000" transform="translate(392.3972 281.41797)"><tspan x="4.543" y="16" fill="#000" font-family="Monaco" font-size="16">000000005</tspan></text></g><g id="Graphic_59"><rect width="105.5" height="38.5" x="387.397" y="311.336" fill="#ffffc0"/><rect width="105.5" height="38.5" x="387.397" y="311.336" stroke="#000" stroke-linecap="round" stroke-linejoin="round" stroke-width="1"/><text fill="#000" transform="translate(392.3972 319.91797)"><tspan x="4.543" y="16" fill="#000" font-family="Monaco" font-size="16">000000006</tspan></text></g><g id="Graphic_58"><rect width="105.5" height="38.5" x="387.397" y="349.836" fill="#c0ffc0"/><rect width="105.5" height="38.5" x="387.397" y="349.836" stroke="#000" stroke-linecap="round" stroke-linejoin="round" stroke-width="1"/><text fill="#000" transform="translate(392.3972 358.41797)"><tspan x="4.543" y="16" fill="#000" font-family="Monaco" font-size="16">000000007</tspan></text></g><g id="Graphic_57"><rect width="184.56" height="38.5" x="133.837" y="195.836" fill="#c0ffff"/><rect width="184.56" height="38.5" x="133.837" y="195.836" stroke="#000" stroke-linecap="round" stroke-linejoin="round" stroke-width="1"/><text fill="#000" transform="translate(138.83719 204.41797)"><tspan x="0" y="16" fill="#000" font-family="Monaco" font-size="16">is-odd/index.js</tspan></text></g><g id="Graphic_56"><rect width="184.56" height="38.5" x="133.837" y="234.336" fill="#c0ffc0"/><rect width="184.56" height="38.5" x="133.837" y="234.336" stroke="#000" stroke-linecap="round" stroke-linejoin="round" stroke-width="1"/><text fill="#000" transform="translate(138.83719 242.91797)"><tspan x="0" y="16" fill="#000" font-family="Monaco" font-size="16">is-odd/LICENSE.md</tspan></text></g><g id="Graphic_55"><rect width="184.56" height="38.5" x="561.897" y="195.836" fill="#ffffc0"/><rect width="184.56" height="38.5" x="561.897" y="195.836" stroke="#000" stroke-linecap="round" stroke-linejoin="round" stroke-width="1"/><text fill="#000" transform="translate(566.8972 204.41797)"><tspan x="0" y="16" fill="#000" font-family="Monaco" font-size="16">is-even/index.js</tspan></text></g><g id="Graphic_54"><rect width="184.56" height="38.5" x="561.897" y="234.336" fill="#c0ffc0"/><rect width="184.56" height="38.5" x="561.897" y="234.336" stroke="#000" stroke-linecap="round" stroke-linejoin="round" stroke-width="1"/><text fill="#000" transform="translate(566.8972 242.91797)"><tspan x="0" y="16" fill="#000" font-family="Monaco" font-size="16">is-even/LICENSE.md</tspan></text></g><g id="Graphic_53"><text fill="#000" transform="translate(320.12766 131)"><tspan x="0" y="16" fill="#000" font-family="Monaco" font-size="16">Content-addressable store</tspan></text></g><g id="Graphic_52"><text fill="#000" transform="translate(120.5 169.5)"><tspan x="0" y="16" fill="#000" font-family="Monaco" font-size="16">project_1/node_modules</tspan></text></g><g id="Graphic_47"><text fill="#000" transform="translate(548.56 172.38794)"><tspan x="0" y="16" fill="#000" font-family="Monaco" font-size="16">project_2/node_modules</tspan></text></g><g id="Line_64"><line x1="318.397" x2="377.497" y1="215.086" y2="215.086" stroke="#7f8080" stroke-linecap="round" stroke-linejoin="round" stroke-width="1" marker-end="url(#FilledArrow_Marker)"/></g><g id="Line_71"><path stroke="#7f8080" stroke-linecap="round" stroke-linejoin="round" stroke-width="1" marker-end="url(#FilledArrow_Marker)" d="M 561.8972 215.08594 L 551.8972 215.08594 L 531.51775 215.2434 L 518.00994 215.2434 L 518.00994 330.58594 L 502.7972 330.58594"/></g><g id="Line_72"><path stroke="#7f8080" stroke-linecap="round" stroke-linejoin="round" stroke-width="1" marker-end="url(#FilledArrow_Marker)" d="M 318.3972 253.58594 L 328.3972 253.58594 L 354.45134 253.1067 L 354.5412 349.83594 L 354.5412 369.08594 L 377.4972 369.08594"/></g><g id="Line_74"><path stroke="#7f8080" stroke-linecap="round" stroke-linejoin="round" stroke-width="1" marker-end="url(#FilledArrow_Marker)" d="M 561.8972 253.58594 L 551.8972 253.58594 L 540.7232 253.88794 L 540.7232 369.08594 L 502.7972 369.08594"/></g></g></g></svg>